<svg width="145" height="137" viewBox="0 0 145 137" fill="none" xmlns="http://www.w3.org/2000/svg">
<path d="M142.038 90.361C143.634 88.6428 143.772 86.7712 142.452 84.7462C141.225 82.9053 140.55 80.0213 140.427 76.094C140.335 72.1361 140.504 68.0708 140.934 63.8981C141.394 59.6947 141.808 56.3044 142.176 53.7271C142.268 53.1749 142.345 52.684 142.406 52.2544C142.529 49.7385 141.471 47.959 139.231 46.9158C137.022 45.842 134.69 45.6886 132.235 46.4556C129.812 47.2226 128.37 49.0789 127.909 52.0243C127.879 52.3004 127.848 52.6073 127.817 52.9448C127.503 55.8348 126.529 59.6311 126.214 64.1223C128.387 63.9809 130.429 65.0055 131.503 66.8346C132.783 68.9494 132.915 70.7626 132.463 73.3226C132.018 75.8455 130.301 77.7793 126.581 78.7032C126.582 78.7357 126.751 79.5423 126.753 79.5748C127.029 84.2998 127.909 87.8297 129.382 90.315C131.1 92.6161 133.248 93.6286 135.825 93.3524C138.402 93.0763 140.473 92.0791 142.038 90.361Z" fill="white"/>
<path d="M143.143 32.0966C142.038 29.6728 139.936 28.3688 136.838 28.1847C133.8 28.3688 131.76 29.6728 130.717 32.0966C129.704 34.4898 129.735 36.8983 130.809 39.3221C131.883 41.746 134.03 43.0499 137.252 43.234C140.381 43.0499 142.422 41.746 143.373 39.3221C144.355 36.8983 144.278 34.4898 143.143 32.0966Z" fill="white"/>
<path fill-rule="evenodd" clip-rule="evenodd" d="M96.5661 72.3958C96.5121 75.7187 96.6067 77.8934 96.8498 78.92C97.093 79.9196 97.3496 80.9192 97.6197 81.9188C97.8899 82.9453 98.025 83.9043 98.025 84.7958C97.8899 86.6599 97.1335 88.1187 95.7557 89.1723C94.3779 90.2259 92.7975 90.5906 91.0145 90.2664C89.2314 89.9152 87.6645 88.578 86.3138 86.2547C85.8275 85.147 85.4087 82.6887 85.0575 78.8795C84.7333 75.0704 84.5172 70.2616 84.4092 64.4533C84.3281 58.6449 84.3687 53.3905 84.5307 48.6898C84.7199 43.9891 85.0575 41.0039 85.5438 39.7341C86.0841 38.4644 87.1783 37.4243 88.8262 36.6138C90.4742 35.8034 92.9325 35.3306 96.2014 35.1955C104.09 35.0334 109.601 36.2897 112.735 38.9642C115.896 41.6117 117.071 45.0697 116.26 49.3381C115.45 53.6066 113.059 58.0506 109.088 62.6703C107.656 64.3993 107.386 65.5879 108.277 66.2363C109.196 66.8847 110.655 67.2088 112.654 67.2088C114.653 67.1818 120.089 67.0197 121.953 66.7226C123.817 66.4254 124.993 66.2093 125.479 66.0742C127.424 65.696 128.842 66.2768 129.734 67.8167C130.652 69.3566 130.949 71.0586 130.625 72.9226C130.301 74.7867 129.288 76.0159 127.586 76.6102C122.237 78.015 113.464 78.3662 108.277 77.6638C103.09 76.9344 99.1866 75.1784 96.5661 72.3958ZM93.3294 48.2693C92.5388 48.2318 92.1282 49.1982 92.704 49.7413L93.8798 50.8504C95.2016 52.0972 95.9127 53.8591 95.8267 55.6741L95.7501 57.2887C95.7126 58.0793 96.6789 58.4899 97.2221 57.9141L98.3312 56.7383C99.5779 55.4165 101.34 54.7054 103.155 54.7914L104.769 54.868C105.56 54.9055 105.971 53.9391 105.395 53.396L104.219 52.2869C102.897 51.0402 102.186 49.2782 102.272 47.4632L102.349 45.8486C102.386 45.058 101.42 44.6474 100.877 45.2232L99.7677 46.399C98.5209 47.7208 96.759 48.4319 94.944 48.3459L93.3294 48.2693Z" fill="white"/>
<path d="M20.8177 24.9839C20.8177 23.0476 21.421 20.3053 23.1958 19.7382C25.0011 19.1401 25.9305 19.058 28.243 19.2619C30.3628 19.5817 30.9833 19.4292 32.6569 20.303C34.6877 22.0835 33.6611 39.894 33.6611 41.9832C39.0612 41.9687 45.5498 41.9171 48.6493 41.9832C50.8604 42.2102 52.2345 43.2572 52.7718 45.1244C53.309 46.9915 53.1558 48.8491 52.3122 50.6971C51.4992 52.5449 50.1575 53.538 48.287 53.6764L45.3417 53.701C40.8316 53.7388 35.4558 53.7057 32.3569 53.701C32.3569 66.8031 32.3664 66.2249 32.3569 70.5854C32.2859 103.125 68.9236 118.762 106.175 95.9542C109.031 94.205 112.826 94.8675 114.7 97.6439L115.809 99.2868C117.727 102.129 117.086 105.989 114.149 107.761C97.4562 117.835 64.9549 128.495 35.9 108.795C28.4743 101.08 20.7933 97.2489 19.7102 71.1298C18.7082 55.1939 19.7055 44.7668 20.8177 24.9839Z" fill="white"/>
<path fill-rule="evenodd" clip-rule="evenodd" d="M44.1585 55.4386C43.0046 57.7146 42.6572 59.0514 41.9517 61.4454C40.609 66.0015 40.4225 70.544 41.3922 75.0732C42.3993 79.5753 44.7117 83.3091 48.3296 86.2746C51.9474 89.2131 56.9639 90.5745 63.3791 90.3588C68.6753 89.9814 72.89 88.2965 76.023 85.3041C79.1933 82.3116 81.2633 78.6722 82.2331 74.3857C83.2401 70.0992 83.1655 65.8128 82.0093 61.5263C80.8904 57.2398 78.7271 53.6274 75.5195 50.6888C72.3119 47.7233 68.0599 46.0788 62.7637 45.7553C59.7628 45.6959 57.7945 45.7434 55.3713 46.6337C55.4323 48.0924 54.8853 50.514 54.1432 51.9629C53.0615 54.1539 51.3881 55.2745 48.8993 55.4386H44.1585ZM62.5644 78.4086C59.588 78.5087 57.2606 77.8771 55.5821 76.5137C53.9035 75.1379 52.8307 73.4056 52.3634 71.3168C51.9135 69.2155 52 67.1079 52.623 64.9941C53.2633 62.8803 54.3967 61.1292 56.0233 59.7409C57.6672 58.34 59.7524 57.6646 62.2789 57.7146C64.7361 57.8647 66.7088 58.6277 68.197 60.0035C69.6852 61.3669 70.6888 63.0429 71.208 65.0316C71.7444 67.0204 71.779 69.0091 71.3118 70.9978C70.8619 72.9866 69.9015 74.6751 68.4306 76.0635C66.977 77.4518 65.0216 78.2335 62.5644 78.4086Z" fill="white"/>
</svg>
