<svg width="16" height="18" viewBox="0 0 16 18" fill="none" xmlns="http://www.w3.org/2000/svg">
<path d="M6.68214 14.4148C10.2605 14.8705 13.5308 12.3391 13.9865 8.76072C14.4423 5.18235 11.9109 1.91206 8.33248 1.45633C4.75411 1.00061 1.48383 3.53201 1.0281 7.11038C0.572374 10.6887 3.10377 13.959 6.68214 14.4148ZM6.68214 14.4148C7.97094 14.5789 9.27215 14.2243 10.2995 13.4291C11.3269 12.6338 11.9963 11.463 12.1604 10.1742C12.3246 8.88543 11.97 7.58422 11.1748 6.55684C10.3795 5.52946 9.20869 4.86008 7.9199 4.69594C7.0607 4.58652 6.19323 4.82289 5.50831 5.35306C4.82339 5.88323 4.37713 6.66376 4.26771 7.52296C4.15828 8.38216 4.39466 9.24963 4.92483 9.93455C5.45499 10.6195 6.23553 11.0657 7.09473 11.1752C7.52433 11.2299 7.95807 11.1117 8.30052 10.8466C8.64298 10.5815 8.86611 10.1912 8.92082 9.76164C8.97554 9.33204 8.85735 8.89831 8.59227 8.55585C8.32718 8.21339 7.93691 7.99026 7.50731 7.93555M14.5749 17.066L11.5358 13.1399" stroke="white" stroke-width="1.63289" stroke-linecap="round" stroke-linejoin="round"/>
</svg>
