<svg width="33" height="36" viewBox="0 0 33 36" fill="none" xmlns="http://www.w3.org/2000/svg">
<g clip-path="url(#clip0_2889_63)">
<path d="M14.3911 14.2107C12.6584 12.8888 10.1822 13.2217 8.86022 14.9544C7.53826 16.6871 7.87122 19.1634 9.60388 20.4853L14.3911 14.2107Z" fill="white"/>
<path d="M14.3911 14.2107L19.1783 7.93614C20.9109 9.25808 21.2439 11.7343 19.922 13.467C18.6 15.1997 16.1237 15.5327 14.3911 14.2107Z" fill="white"/>
<path d="M14.3911 14.2107L8.11653 9.42355C9.43847 7.69089 11.9147 7.35793 13.6474 8.67987C15.38 10.0018 15.713 12.4781 14.3911 14.2107Z" fill="white"/>
<path d="M14.3911 14.2107L20.6656 18.9979C19.3437 20.7305 16.8674 21.0635 15.1347 19.7416C13.4021 18.4197 13.0691 15.9434 14.3911 14.2107Z" fill="white"/>
<path d="M22.9886 30.1628C23.1263 30.4022 23.432 30.4847 23.6713 30.347C23.9107 30.2093 23.9932 29.9037 23.8555 29.6643L22.9886 30.1628ZM14.2353 14.9423L22.9886 30.1628L23.8555 29.6643L15.1021 14.4437L14.2353 14.9423Z" fill="white"/>
</g>
<defs>
<clipPath id="clip0_2889_63">
<rect width="20.6612" height="28.4451" fill="white" transform="translate(0.285645 10.4056) rotate(-29.9033)"/>
</clipPath>
</defs>
</svg>
