<svg width="20" height="13" viewBox="0 0 20 13" fill="none" xmlns="http://www.w3.org/2000/svg">
<path d="M4.31126 3.95131L5.96024 5.24894C5.60179 5.72963 5.28145 6.23814 5.00225 6.76965L4.84176 7.07638L6.76845 10.526L7.10928 10.5443C7.70119 10.5723 8.29472 10.5526 8.88424 10.4853L9.13692 12.59C9.13934 12.6109 9.14684 12.6307 9.15874 12.6479C9.17065 12.665 9.18658 12.6788 9.20512 12.688C9.22366 12.6973 9.24422 12.7018 9.26495 12.701C9.28568 12.7002 9.30593 12.6942 9.32389 12.6836L10.8189 11.8195C11.0629 11.6785 11.2753 11.4874 11.4425 11.2587C11.6097 11.03 11.7279 10.7687 11.7895 10.4917L11.9573 9.71853C14.5672 8.69273 17.539 6.45239 19.5007 1.65502C19.5518 1.53528 19.575 1.4054 19.5685 1.27551C19.562 1.14562 19.526 1.01922 19.4632 0.906174C19.4004 0.793126 19.3126 0.696479 19.2065 0.623768C19.1005 0.551056 18.9791 0.504244 18.8519 0.48698C13.7953 -0.248218 10.3799 1.20337 8.17966 2.95246L7.44128 2.70718C7.17657 2.61838 6.89603 2.5868 6.61768 2.61446C6.33934 2.64211 6.06937 2.72841 5.82513 2.86778L4.33012 3.73192C4.31009 3.74143 4.29285 3.75612 4.28016 3.77449C4.26747 3.79286 4.25978 3.81427 4.25787 3.83654C4.25595 3.85881 4.25988 3.88116 4.26926 3.90131C4.27864 3.92147 4.29313 3.93871 4.31126 3.95131ZM12.6044 3.12431C12.8633 2.97526 13.1595 2.90691 13.4555 2.92787C13.7515 2.94883 14.034 3.05818 14.2675 3.24209C14.501 3.42601 14.6749 3.67625 14.7673 3.96122C14.8596 4.24619 14.8663 4.5531 14.7865 4.84321C14.7067 5.13331 14.5439 5.3936 14.3188 5.5912C14.0936 5.78879 13.8162 5.91484 13.5215 5.95343C13.2268 5.99202 12.928 5.94141 12.663 5.80799C12.3979 5.67457 12.1784 5.46434 12.0322 5.20383C11.9349 5.03034 11.8724 4.83885 11.8485 4.64033C11.8246 4.44181 11.8396 4.24017 11.8928 4.04697C11.946 3.85378 12.0362 3.67283 12.1583 3.5145C12.2804 3.35616 12.432 3.22357 12.6044 3.12431ZM2.39391 9.55564C2.11477 9.36031 1.78987 9.24189 1.45088 9.21194C1.42046 9.21034 1.391 9.20096 1.36524 9.18466C1.33948 9.16837 1.31827 9.1457 1.30359 9.11877C1.28521 9.08604 1.27725 9.04831 1.2808 9.01068C1.28435 8.97306 1.29923 8.93736 1.32342 8.90843C1.87138 8.25566 3.19302 7.00344 4.50372 8.66942C4.51016 8.67959 4.51441 8.69103 4.51617 8.70301C4.51794 8.71498 4.51719 8.72722 4.51397 8.73891C4.51075 8.75061 4.50514 8.76151 4.49749 8.77089C4.48985 8.78028 4.48035 8.78794 4.46961 8.79338C4.20103 8.90871 3.96256 9.08622 3.77347 9.31155C3.58439 9.53688 3.45001 9.80372 3.3812 10.0905C3.37321 10.1242 3.3781 10.1595 3.39487 10.1895C3.41163 10.2195 3.43904 10.2419 3.47158 10.2522C3.74736 10.3403 4.04019 10.3615 4.32654 10.3142C4.61289 10.2668 4.88476 10.1522 5.12031 9.9795C5.13063 9.97206 5.14244 9.96703 5.15487 9.96477C5.16731 9.9625 5.18007 9.96306 5.19223 9.96641C5.20438 9.96975 5.21563 9.9758 5.22516 9.9841C5.23469 9.99241 5.24225 10.0028 5.24732 10.0144C5.39975 10.3529 5.78061 11.4262 4.84531 12.1039C4.43945 12.3909 3.93954 12.5054 3.45365 12.4228C2.75825 12.3104 1.44926 12.1906 0.77718 12.6408C0.749957 12.6598 0.718214 12.6709 0.685339 12.6731C0.652464 12.6753 0.619688 12.6684 0.590508 12.6531C0.561327 12.6379 0.536837 12.6149 0.519646 12.5866C0.502456 12.5583 0.493212 12.5257 0.492899 12.4924C0.48428 11.8198 0.587815 10.35 2.39391 9.55564Z" fill="white"/>
</svg>
